<svg width="558" height="558" viewBox="0 0 558 558" fill="none" xmlns="http://www.w3.org/2000/svg">
<path d="M70.1665 236.743C68.6568 234.62 68.0808 231.979 68.5477 229.415C77.3301 182.184 103.175 139.042 140.522 109.062C142.56 107.424 145.175 106.678 147.774 107.011C150.373 107.353 152.73 108.718 154.275 110.812L202.819 176.196C205.178 179.352 205.292 183.514 203.429 186.74C202.885 187.683 202.165 188.558 201.294 189.294C184.229 203.618 172.408 223.332 167.879 245.446C166.879 250.483 162.071 253.809 156.991 253.024L76.5392 240.672C73.9689 240.284 71.6602 238.867 70.1665 236.743ZM164.311 304.015C164.123 302.874 163.715 301.82 163.165 300.865C161.307 297.633 157.64 295.667 153.718 296.124L72.8266 305.465C70.2307 305.765 67.8754 307.122 66.2759 309.187C64.6939 311.267 64.0281 313.901 64.4324 316.492C71.7212 363.83 96.1577 407.785 132.667 439.013C134.652 440.709 137.232 441.524 139.831 441.279C142.412 441.033 144.801 439.743 146.43 437.722L197.366 374.226C200.557 370.218 200.092 364.39 196.224 361.011C179.342 346.034 168.192 325.955 164.311 304.015ZM322.494 399.86C320.635 395.09 315.347 392.572 310.503 394.222C289.081 401.368 266.1 400.983 245.161 393.381C244.071 392.977 242.971 392.8 241.883 392.8C238.142 392.8 234.609 394.977 233.056 398.613L200.69 473.341C199.654 475.738 199.636 478.452 200.657 480.864C201.653 483.298 203.601 485.176 206.046 486.121C250.685 503.47 300.971 504.294 346.273 488.265C348.726 487.403 350.733 485.578 351.821 483.217C352.91 480.856 352.981 478.152 352.026 475.719L322.494 399.86ZM494.111 320.599C492.618 318.494 490.302 317.054 487.74 316.667L407.286 304.324C402.229 303.553 397.4 306.871 396.413 311.902C391.883 334.017 380.071 353.717 363.018 368.043C362.116 368.8 361.396 369.66 360.857 370.61C358.996 373.832 359.122 377.984 361.468 381.143L410.006 446.525C411.577 448.624 413.917 450.008 416.515 450.34C419.093 450.656 421.708 449.936 423.773 448.287C461.109 418.305 486.956 375.165 495.762 327.923C496.221 325.377 495.621 322.733 494.111 320.599ZM399.962 253.338C400.152 254.471 400.554 255.533 401.105 256.477C402.964 259.713 406.635 261.675 410.551 261.222L491.443 251.864C494.041 251.569 496.394 250.218 497.991 248.142C499.592 246.066 500.238 243.433 499.853 240.842C492.557 193.504 468.128 149.558 431.603 118.327C429.62 116.638 427.038 115.821 424.441 116.062C421.859 116.304 419.473 117.591 417.842 119.622L366.925 183.117C363.714 187.122 364.184 192.954 368.048 196.334C384.932 211.311 396.076 231.403 399.962 253.338ZM241.774 157.478C243.619 162.255 248.92 164.762 253.767 163.114C275.193 155.977 298.17 156.355 319.107 163.971C320.195 164.365 321.302 164.555 322.388 164.555C326.13 164.555 329.658 162.36 331.216 158.747L363.56 84.014C364.613 81.6123 364.613 78.8992 363.616 76.491C362.615 74.0716 360.668 72.1832 358.222 71.2318C313.59 53.8803 263.299 53.0717 217.995 69.0723C215.544 69.9451 213.535 71.7709 212.452 74.1326C211.363 76.4975 211.287 79.2025 212.224 81.6299L241.774 157.478ZM283.48 229.253C256.512 229.253 234.628 251.126 234.628 278.105C234.628 305.079 256.512 326.958 283.48 326.958C310.452 326.958 332.334 305.079 332.334 278.105C332.334 251.126 310.452 229.253 283.48 229.253ZM278.985 545V551.496V557.992C125.159 557.992 0 432.833 0 279.015C0 125.18 125.159 0 278.985 0C432.832 0 557.992 125.162 557.992 278.997C557.992 441.279 432.811 557.992 278.985 557.992V545ZM278.985 538.765C422.23 538.765 538.747 422.23 538.747 278.997C538.747 135.767 422.23 19.2415 278.985 19.2415C135.757 19.2415 19.2383 135.767 19.2383 278.997C19.2383 422.23 135.757 538.765 278.985 538.765Z" fill="url(#paint0_linear_701_204)"/>
<defs>
<linearGradient id="paint0_linear_701_204" x1="73.5" y1="457.5" x2="510" y2="151.5" gradientUnits="userSpaceOnUse">
<stop stop-color="#833DEB"/>
<stop offset="1" stop-color="#EE3664"/>
</linearGradient>
</defs>
</svg>
